<?xml version="1.0" encoding="utf-8"?>
<!-- Generator: Adobe Illustrator 14.0.0, SVG Export Plug-In . SVG Version: 6.00 Build 43363)  -->
<!DOCTYPE svg PUBLIC "-//W3C//DTD SVG 1.0//EN" "http://www.w3.org/TR/2001/REC-SVG-20010904/DTD/svg10.dtd">
<svg version="1.0" id="Layer_1" xmlns="http://www.w3.org/2000/svg" xmlns:xlink="http://www.w3.org/1999/xlink" x="0px" y="0px"
	 width="100%" height="auto" viewBox="0 0 85 55" enable-background="new 0 0 85 55" xml:space="preserve">
<g>
	<g>
		<path fill="#000" d="M45.744,53.557H14.955L1.045,27.333h0.012H1.045l15.899-26.14l13.32,24.219h52.514v4H32.465L45.744,53.557
			L45.744,53.557z M17.267,49.557h21.712L27.899,29.412H6.917L17.267,49.557L17.267,49.557z M25.699,25.413l-8.82-16.038
			L6.917,25.413H25.699z"/>
	</g>
	<g>
		<polygon fill="#000" points="31.683,28.402 28.207,26.422 42.366,1.14 69.444,1.14 69.444,5.14 44.69,5.14 31.683,28.402 		"/>
	</g>
	<g>
		<polygon fill="#000" points="45.614,53.537 42.233,51.619 69.429,1.14 83.955,27.274 80.459,29.217 69.46,9.428 45.744,53.537 
					"/>
	</g>
	<g>
		<polygon fill="#000" points="68.938,53.859 54.189,26.871 57.699,24.953 69,45.631 80.467,25.382 83.947,27.353 68.938,53.859 
					"/>
	</g>
</g>
</svg>
