<?xml version="1.0" encoding="utf-8"?>
<!-- Generator: Adobe Illustrator 14.0.0, SVG Export Plug-In  -->
<!DOCTYPE svg PUBLIC "-//W3C//DTD SVG 1.1//EN" "http://www.w3.org/Graphics/SVG/1.1/DTD/svg11.dtd" [
	<!ENTITY ns_flows "http://ns.adobe.com/Flows/1.0/">
]>
<svg version="1.1"
	 xmlns="http://www.w3.org/2000/svg" xmlns:xlink="http://www.w3.org/1999/xlink" xmlns:a="http://ns.adobe.com/AdobeSVGViewerExtensions/3.0/"
	 x="0px" y="0px" width="85px" height="55px" viewBox="-1.045 -1.14 85 55" enable-background="new -1.045 -1.14 85 55"
	 xml:space="preserve">
<defs>
</defs>
<path fill="#071735" d="M44.699,52.417H13.91L0,28.28l0.012-0.008H0L15.899,0.053l13.32,24.219h52.514v4H31.42L44.699,52.417
	L44.699,52.417z M16.222,48.417h21.712L26.854,28.272H4.613L16.222,48.417L16.222,48.417z M6.678,24.272h17.977l-8.82-16.038
	L6.678,24.272L6.678,24.272z"/>
<polygon fill="#071735" points="30.638,27.262 27.162,25.282 41.321,0 68.399,0 68.399,4 43.646,4 30.638,27.262 "/>
<polygon fill="#071735" points="44.569,52.397 41.188,50.479 68.384,0 82.91,26.134 79.414,28.077 68.415,8.288 44.699,52.397 "/>
<polygon fill="#071735" points="67.893,52.719 53.145,25.731 56.654,23.813 67.955,44.491 79.422,24.242 82.902,26.212 
	67.893,52.719 "/>
</svg>
