<?xml version="1.0" encoding="UTF-8" standalone="no"?>
<!DOCTYPE svg PUBLIC "-//W3C//DTD SVG 1.1//EN" "http://www.w3.org/Graphics/SVG/1.1/DTD/svg11.dtd">
<svg width="100%" height="100%" viewBox="0 0 2481 3508" version="1.1" xmlns="http://www.w3.org/2000/svg" xmlns:xlink="http://www.w3.org/1999/xlink" xml:space="preserve" xmlns:serif="http://www.serif.com/" style="fill-rule:evenodd;clip-rule:evenodd;stroke-linejoin:round;stroke-miterlimit:2;">
    <g>
        <path d="M571.646,1334.31l63.862,-0l288.058,881.837l288.057,-876.761l59.786,-0l289.417,876.761l286.699,-881.837l61.144,-0l-320.668,949.776l-58.427,-0l-288.058,-869.609l-289.416,869.609l-59.786,-0l-320.668,-949.776Z" style="fill:#231f20;"/>
        <path d="M1215.19,1448.19c-0,-71.099 -15.221,-126.327 -45.662,-165.685c-30.441,-39.358 -73.989,-59.037 -130.643,-59.037c-54.963,0 -97.665,19.679 -128.106,59.037c-30.441,39.358 -45.662,94.586 -45.662,165.685l-0,308.516l350.073,-0l-0,-308.516Zm49.281,361.839c-224.303,0 -451.358,0 -451.358,0l0,-363.109c0,-87.18 19.238,-155.104 57.712,-203.773c38.474,-48.668 92.38,-73.002 161.718,-73.002c54.963,-0 100.202,15.023 135.716,45.071c35.515,30.047 64.032,72.156 74.179,126.326" style="fill:#231f20;"/>
        <path d="M1265.13,1448.19c0,-71.099 15.221,-126.327 45.662,-165.685c30.441,-39.358 73.989,-59.037 130.643,-59.037c54.963,0 97.665,19.679 128.106,59.037c30.441,39.358 45.662,94.586 45.662,165.685l-0,308.516l-350.073,-0l0,-308.516Zm-49.281,361.839c224.303,0 451.357,0 451.357,0l0,-363.109c0,-87.18 -19.237,-155.104 -57.711,-203.773c-38.474,-48.668 -92.38,-73.002 -161.718,-73.002c-54.963,-0 -100.202,15.023 -135.717,45.071c-35.514,30.047 -63.083,72.156 -73.23,126.326" style="fill:#231f20;"/>
    </g>
</svg>
